<?xml version="1.0" encoding="UTF-8" standalone="no"?>
<svg
   xmlns:dc="http://purl.org/dc/elements/1.1/"
   xmlns:cc="http://creativecommons.org/ns#"
   xmlns:rdf="http://www.w3.org/1999/02/22-rdf-syntax-ns#"
   xmlns:svg="http://www.w3.org/2000/svg"
   xmlns="http://www.w3.org/2000/svg"
   xmlns:sodipodi="http://sodipodi.sourceforge.net/DTD/sodipodi-0.dtd"
   xmlns:inkscape="http://www.inkscape.org/namespaces/inkscape"
   version="1.0"
   x="0px"
   y="0px"
   viewBox="0 0 500 500"
   enable-background="new 0 0 100 100"
   xml:space="preserve"
   id="svg12128"
   sodipodi:docname="dashboard.svg"
   width="500"
   height="500"
   inkscape:version="0.92.3 (2405546, 2018-03-11)"><metadata
     id="metadata12134"><rdf:RDF><cc:Work
         rdf:about=""><dc:format>image/svg+xml</dc:format><dc:type
           rdf:resource="http://purl.org/dc/dcmitype/StillImage" /><dc:title></dc:title></cc:Work></rdf:RDF></metadata><defs
     id="defs12132" /><sodipodi:namedview
     pagecolor="#ffffff"
     bordercolor="#666666"
     borderopacity="1"
     objecttolerance="10"
     gridtolerance="10"
     guidetolerance="10"
     inkscape:pageopacity="0"
     inkscape:pageshadow="2"
     inkscape:window-width="1920"
     inkscape:window-height="1017"
     id="namedview12130"
     showgrid="false"
     inkscape:zoom="0.944"
     inkscape:cx="131.13891"
     inkscape:cy="295.15459"
     inkscape:window-x="-8"
     inkscape:window-y="-8"
     inkscape:window-maximized="1"
     inkscape:current-layer="svg12128" /><g
     id="g11946"
     transform="matrix(4.591954,0,0,4.591954,21.466491,11.074177)"><path
       d="m 28.5,78 h -4 C 24.224,78 24,77.776 24,77.5 v -5 C 24,72.224 24.224,72 24.5,72 h 4 c 0.276,0 0.5,0.224 0.5,0.5 v 5 C 29,77.776 28.776,78 28.5,78 Z M 25,77 h 3 v -4 h -3 z"
       id="path11944"
       inkscape:connector-curvature="0"
       style="fill:#000000" /></g><g
     id="g11950"
     transform="matrix(4.591954,0,0,4.591954,21.466491,11.074177)"><path
       d="m 14.5,38 h -3 C 11.224,38 11,37.776 11,37.5 v -4 C 11,33.224 11.224,33 11.5,33 h 3 c 0.276,0 0.5,0.224 0.5,0.5 v 4 C 15,37.776 14.776,38 14.5,38 Z M 12,37 h 2 v -3 h -2 z"
       id="path11948"
       inkscape:connector-curvature="0"
       style="fill:#000000" /></g><g
     id="g11954"
     transform="matrix(4.591954,0,0,4.591954,21.466491,11.074177)"><path
       d="m 14.5,45 h -3 C 11.224,45 11,44.776 11,44.5 v -4 C 11,40.224 11.224,40 11.5,40 h 3 c 0.276,0 0.5,0.224 0.5,0.5 v 4 C 15,44.776 14.776,45 14.5,45 Z M 12,44 h 2 v -3 h -2 z"
       id="path11952"
       inkscape:connector-curvature="0"
       style="fill:#000000" /></g><g
     id="g11958"
     transform="matrix(4.591954,0,0,4.591954,21.466491,11.074177)"><path
       d="m 14.5,52 h -3 C 11.224,52 11,51.776 11,51.5 v -4 C 11,47.224 11.224,47 11.5,47 h 3 c 0.276,0 0.5,0.224 0.5,0.5 v 4 C 15,51.776 14.776,52 14.5,52 Z M 12,51 h 2 v -3 h -2 z"
       id="path11956"
       inkscape:connector-curvature="0"
       style="fill:#000000" /></g><g
     id="g11962"
     transform="matrix(4.591954,0,0,4.591954,21.466491,11.074177)"><path
       d="m 14.5,59 h -3 C 11.224,59 11,58.776 11,58.5 v -4 C 11,54.224 11.224,54 11.5,54 h 3 c 0.276,0 0.5,0.224 0.5,0.5 v 4 C 15,58.776 14.776,59 14.5,59 Z M 12,58 h 2 v -3 h -2 z"
       id="path11960"
       inkscape:connector-curvature="0"
       style="fill:#000000" /></g><g
     id="g11966"
     transform="matrix(4.591954,0,0,4.591954,21.466491,11.074177)"><path
       d="m 14.5,66 h -3 C 11.224,66 11,65.776 11,65.5 v -4 C 11,61.224 11.224,61 11.5,61 h 3 c 0.276,0 0.5,0.224 0.5,0.5 v 4 C 15,65.776 14.776,66 14.5,66 Z M 12,65 h 2 v -3 h -2 z"
       id="path11964"
       inkscape:connector-curvature="0"
       style="fill:#000000" /></g><g
     id="g11970"
     transform="matrix(4.591954,0,0,4.591954,21.466491,11.074177)"><path
       d="m 14.5,73 h -3 C 11.224,73 11,72.776 11,72.5 v -4 C 11,68.224 11.224,68 11.5,68 h 3 c 0.276,0 0.5,0.224 0.5,0.5 v 4 C 15,72.776 14.776,73 14.5,73 Z M 12,72 h 2 v -3 h -2 z"
       id="path11968"
       inkscape:connector-curvature="0"
       style="fill:#000000" /></g><g
     id="g11974"
     transform="matrix(4.591954,0,0,4.591954,21.466491,11.074177)"><path
       d="m 79,36 h -4 c -0.276,0 -0.5,-0.224 -0.5,-0.5 0,-0.276 0.224,-0.5 0.5,-0.5 h 4 c 0.276,0 0.5,0.224 0.5,0.5 0,0.276 -0.224,0.5 -0.5,0.5 z"
       id="path11972"
       inkscape:connector-curvature="0"
       style="fill:#000000" /></g><g
     id="g11978"
     transform="matrix(4.591954,0,0,4.591954,21.466491,11.074177)"><path
       d="M 93,82 H 8 C 7.448,82 7,81.553 7,81 V 30 c 0,-0.552 0.448,-1 1,-1 h 85 c 0.553,0 1,0.448 1,1 v 51 c 0,0.553 -0.447,1 -1,1 z M 9,80 H 92 V 31 H 9 Z"
       id="path11976"
       inkscape:connector-curvature="0"
       style="fill:#000000" /></g><g
     id="g11982"
     transform="matrix(4.591954,0,0,4.591954,21.466491,11.074177)"><path
       d="m 93,31 c -0.553,0 -1,-0.448 -1,-1 v -5 c 0,-1.178 -0.852,-2 -2.071,-2 H 11.321 C 10.042,23 9,23.897 9,25 v 5 C 9,30.552 8.552,31 8,31 7.448,31 7,30.552 7,30 v -5 c 0,-2.206 1.938,-4 4.321,-4 H 89.928 C 92.25,21 94,22.72 94,25 v 5 c 0,0.552 -0.447,1 -1,1 z"
       id="path11980"
       inkscape:connector-curvature="0"
       style="fill:#000000" /></g><g
     id="g11986"
     transform="matrix(4.591954,0,0,4.591954,21.466491,11.074177)"><path
       d="m 32,40 h -8 c -0.276,0 -0.5,-0.224 -0.5,-0.5 0,-0.276 0.224,-0.5 0.5,-0.5 h 8 c 0.276,0 0.5,0.224 0.5,0.5 0,0.276 -0.224,0.5 -0.5,0.5 z"
       id="path11984"
       inkscape:connector-curvature="0"
       style="fill:#000000" /></g><g
     id="g11990"
     transform="matrix(4.591954,0,0,4.591954,21.466491,11.074177)"><path
       d="m 38,77 h -7 c -0.276,0 -0.5,-0.224 -0.5,-0.5 0,-0.276 0.224,-0.5 0.5,-0.5 h 7 c 0.276,0 0.5,0.224 0.5,0.5 0,0.276 -0.224,0.5 -0.5,0.5 z"
       id="path11988"
       inkscape:connector-curvature="0"
       style="fill:#000000" /></g><g
     id="g11994"
     transform="matrix(4.591954,0,0,4.591954,21.466491,11.074177)"><path
       d="M 41,74 H 31 c -0.276,0 -0.5,-0.224 -0.5,-0.5 0,-0.276 0.224,-0.5 0.5,-0.5 h 10 c 0.276,0 0.5,0.224 0.5,0.5 0,0.276 -0.224,0.5 -0.5,0.5 z"
       id="path11992"
       inkscape:connector-curvature="0"
       style="fill:#000000" /></g><g
     id="g11998"
     transform="matrix(4.591954,0,0,4.591954,21.466491,11.074177)"><path
       d="m 48.5,78 h -4 C 44.224,78 44,77.776 44,77.5 v -5 C 44,72.224 44.224,72 44.5,72 h 4 c 0.276,0 0.5,0.224 0.5,0.5 v 5 C 49,77.776 48.776,78 48.5,78 Z M 45,77 h 3 v -4 h -3 z"
       id="path11996"
       inkscape:connector-curvature="0"
       style="fill:#000000" /></g><g
     id="g12002"
     transform="matrix(4.591954,0,0,4.591954,21.466491,11.074177)"><path
       d="m 58,77 h -7 c -0.276,0 -0.5,-0.224 -0.5,-0.5 0,-0.276 0.224,-0.5 0.5,-0.5 h 7 c 0.276,0 0.5,0.224 0.5,0.5 0,0.276 -0.224,0.5 -0.5,0.5 z"
       id="path12000"
       inkscape:connector-curvature="0"
       style="fill:#000000" /></g><g
     id="g12006"
     transform="matrix(4.591954,0,0,4.591954,21.466491,11.074177)"><path
       d="M 61,74 H 51 c -0.276,0 -0.5,-0.224 -0.5,-0.5 0,-0.276 0.224,-0.5 0.5,-0.5 h 10 c 0.276,0 0.5,0.224 0.5,0.5 0,0.276 -0.224,0.5 -0.5,0.5 z"
       id="path12004"
       inkscape:connector-curvature="0"
       style="fill:#000000" /></g><g
     id="g12010"
     transform="matrix(4.591954,0,0,4.591954,21.466491,11.074177)"><path
       d="m 70.5,78 h -4 C 66.224,78 66,77.776 66,77.5 v -5 C 66,72.224 66.224,72 66.5,72 h 4 c 0.276,0 0.5,0.224 0.5,0.5 v 5 C 71,77.776 70.776,78 70.5,78 Z M 67,77 h 3 v -4 h -3 z"
       id="path12008"
       inkscape:connector-curvature="0"
       style="fill:#000000" /></g><g
     id="g12014"
     transform="matrix(4.591954,0,0,4.591954,21.466491,11.074177)"><path
       d="m 80,77 h -7 c -0.276,0 -0.5,-0.224 -0.5,-0.5 0,-0.276 0.224,-0.5 0.5,-0.5 h 7 c 0.276,0 0.5,0.224 0.5,0.5 0,0.276 -0.224,0.5 -0.5,0.5 z"
       id="path12012"
       inkscape:connector-curvature="0"
       style="fill:#000000" /></g><g
     id="g12018"
     transform="matrix(4.591954,0,0,4.591954,21.466491,11.074177)"><path
       d="M 83,74 H 73 c -0.276,0 -0.5,-0.224 -0.5,-0.5 0,-0.276 0.224,-0.5 0.5,-0.5 h 10 c 0.276,0 0.5,0.224 0.5,0.5 0,0.276 -0.224,0.5 -0.5,0.5 z"
       id="path12016"
       inkscape:connector-curvature="0"
       style="fill:#000000" /></g><g
     id="g12022"
     transform="matrix(4.591954,0,0,4.591954,21.466491,11.074177)"><path
       d="M 35,37 H 24 c -0.552,0 -1,-0.448 -1,-1 0,-0.552 0.448,-1 1,-1 h 11 c 0.552,0 1,0.448 1,1 0,0.552 -0.448,1 -1,1 z"
       id="path12020"
       inkscape:connector-curvature="0"
       style="fill:#000000" /></g><g
     id="g12026"
     transform="matrix(4.591954,0,0,4.591954,21.466491,11.074177)"><circle
       cx="13.525"
       cy="26.025"
       r="1.275"
       id="circle12024"
       style="fill:#000000" /></g><g
     id="g12030"
     transform="matrix(4.591954,0,0,4.591954,21.466491,11.074177)"><circle
       cx="17.625"
       cy="26.025"
       r="1.275"
       id="circle12028"
       style="fill:#000000" /></g><g
     id="g12034"
     transform="matrix(4.591954,0,0,4.591954,21.466491,11.074177)"><circle
       cx="21.725"
       cy="26.025"
       r="1.275"
       id="circle12032"
       style="fill:#000000" /></g><g
     id="g12038"
     transform="matrix(4.591954,0,0,4.591954,21.466491,11.074177)"><circle
       cx="72.75"
       cy="35.75"
       r="1"
       id="circle12036"
       style="fill:#000000" /></g><g
     id="g12042"
     transform="matrix(4.591954,0,0,4.591954,21.466491,11.074177)"><path
       d="m 62,42 h -4 c -0.276,0 -0.5,-0.224 -0.5,-0.5 0,-0.276 0.224,-0.5 0.5,-0.5 h 4 c 0.276,0 0.5,0.224 0.5,0.5 0,0.276 -0.224,0.5 -0.5,0.5 z"
       id="path12040"
       inkscape:connector-curvature="0"
       style="fill:#000000" /></g><g
     id="g12046"
     transform="matrix(4.591954,0,0,4.591954,21.466491,11.074177)"><circle
       cx="55.75"
       cy="41.75"
       r="1"
       id="circle12044"
       style="fill:#000000" /></g><g
     id="g12050"
     transform="matrix(4.591954,0,0,4.591954,21.466491,11.074177)"><path
       d="m 76,59 h -4 c -0.276,0 -0.5,-0.224 -0.5,-0.5 0,-0.276 0.224,-0.5 0.5,-0.5 h 4 c 0.276,0 0.5,0.224 0.5,0.5 0,0.276 -0.224,0.5 -0.5,0.5 z"
       id="path12048"
       inkscape:connector-curvature="0"
       style="fill:#000000" /></g><g
     id="g12054"
     transform="matrix(4.591954,0,0,4.591954,21.466491,11.074177)"><circle
       cx="69.75"
       cy="58.75"
       r="1"
       id="circle12052"
       style="fill:#000000" /></g><g
     id="g12058"
     transform="matrix(4.591954,0,0,4.591954,21.466491,11.074177)"><path
       d="m 47,50 h -4 c -0.276,0 -0.5,-0.224 -0.5,-0.5 0,-0.276 0.224,-0.5 0.5,-0.5 h 4 c 0.276,0 0.5,0.224 0.5,0.5 0,0.276 -0.224,0.5 -0.5,0.5 z"
       id="path12056"
       inkscape:connector-curvature="0"
       style="fill:#000000" /></g><g
     id="g12062"
     transform="matrix(4.591954,0,0,4.591954,21.466491,11.074177)"><circle
       cx="40.75"
       cy="49.75"
       r="1"
       id="circle12060"
       style="fill:#000000" /></g><g
     id="g12066"
     transform="matrix(4.591954,0,0,4.591954,21.466491,11.074177)"><path
       d="m 56,66 h -4 c -0.276,0 -0.5,-0.224 -0.5,-0.5 0,-0.276 0.224,-0.5 0.5,-0.5 h 4 c 0.276,0 0.5,0.224 0.5,0.5 0,0.276 -0.224,0.5 -0.5,0.5 z"
       id="path12064"
       inkscape:connector-curvature="0"
       style="fill:#000000" /></g><g
     id="g12070"
     transform="matrix(4.591954,0,0,4.591954,21.466491,11.074177)"><circle
       cx="49.75"
       cy="65.75"
       r="1"
       id="circle12068"
       style="fill:#000000" /></g><g
     id="g12074"
     transform="matrix(4.591954,0,0,4.591954,21.466491,11.074177)"><path
       d="M 17.5,81.5 C 17.224,81.5 17,81.276 17,81 V 31 c 0,-0.276 0.224,-0.5 0.5,-0.5 0.276,0 0.5,0.224 0.5,0.5 v 50 c 0,0.276 -0.224,0.5 -0.5,0.5 z"
       id="path12072"
       inkscape:connector-curvature="0"
       style="fill:#000000" /></g><g
     id="g12078"
     transform="matrix(4.591954,0,0,4.591954,21.466491,11.074177)"><path
       d="m 65.396,55.948 c -0.075,0 -0.152,-0.017 -0.224,-0.053 -0.247,-0.124 -0.347,-0.424 -0.224,-0.671 l 5.567,-11.118 c 0.124,-0.247 0.427,-0.345 0.671,-0.223 0.247,0.124 0.347,0.424 0.224,0.671 l -5.567,11.117 c -0.088,0.177 -0.265,0.277 -0.447,0.277 z"
       id="path12076"
       inkscape:connector-curvature="0"
       style="fill:#000000" /></g><g
     id="g12082"
     transform="matrix(4.591954,0,0,4.591954,21.466491,11.074177)"><path
       d="m 61.778,56.412 c -0.148,0 -0.295,-0.065 -0.394,-0.191 l -4.755,-6.072 c -0.17,-0.217 -0.132,-0.531 0.085,-0.702 0.218,-0.17 0.532,-0.132 0.702,0.085 l 4.755,6.071 c 0.17,0.218 0.132,0.532 -0.085,0.702 -0.091,0.072 -0.199,0.107 -0.308,0.107 z"
       id="path12080"
       inkscape:connector-curvature="0"
       style="fill:#000000" /></g><g
     id="g12086"
     transform="matrix(4.591954,0,0,4.591954,21.466491,11.074177)"><path
       d="m 49.54,58.744 c -0.072,0 -0.146,-0.016 -0.215,-0.049 -0.249,-0.119 -0.354,-0.418 -0.235,-0.667 l 4.003,-8.365 c 0.119,-0.249 0.418,-0.354 0.667,-0.235 0.249,0.119 0.354,0.418 0.235,0.667 l -4.003,8.365 c -0.086,0.18 -0.265,0.284 -0.452,0.284 z"
       id="path12084"
       inkscape:connector-curvature="0"
       style="fill:#000000" /></g><g
     id="g12090"
     transform="matrix(4.591954,0,0,4.591954,21.466491,11.074177)"><path
       d="m 45.801,59.559 c -0.113,0 -0.226,-0.038 -0.32,-0.116 l -2.803,-2.336 c -0.212,-0.177 -0.241,-0.492 -0.064,-0.704 0.177,-0.211 0.492,-0.241 0.705,-0.063 l 2.803,2.336 c 0.212,0.177 0.241,0.492 0.064,0.704 -0.1,0.117 -0.242,0.179 -0.385,0.179 z"
       id="path12088"
       inkscape:connector-curvature="0"
       style="fill:#000000" /></g><g
     id="g12094"
     transform="matrix(4.591954,0,0,4.591954,21.466491,11.074177)"><path
       d="m 31,63.865 c -0.138,0 -0.274,-0.057 -0.373,-0.167 -0.184,-0.206 -0.166,-0.522 0.041,-0.706 l 7.708,-6.869 c 0.205,-0.185 0.522,-0.166 0.706,0.04 0.184,0.206 0.166,0.522 -0.041,0.706 l -7.708,6.869 C 31.237,63.823 31.119,63.865 31,63.865 Z"
       id="path12092"
       inkscape:connector-curvature="0"
       style="fill:#000000" /></g><g
     id="g12098"
     transform="matrix(4.591954,0,0,4.591954,21.466491,11.074177)"><path
       d="m 55.255,50.983 c -1.801,0 -3.266,-1.465 -3.266,-3.266 0,-1.801 1.465,-3.266 3.266,-3.266 1.801,0 3.267,1.465 3.267,3.266 0,1.801 -1.466,3.266 -3.267,3.266 z m 0,-5.532 c -1.249,0 -2.266,1.017 -2.266,2.266 0,1.249 1.017,2.266 2.266,2.266 1.25,0 2.267,-1.016 2.267,-2.266 0,-1.25 -1.017,-2.266 -2.267,-2.266 z"
       id="path12096"
       inkscape:connector-curvature="0"
       style="fill:#000000" /></g><g
     id="g12102"
     transform="matrix(4.591954,0,0,4.591954,21.466491,11.074177)"><path
       d="m 40.942,58.14 c -1.801,0 -3.266,-1.465 -3.266,-3.266 0,-1.801 1.465,-3.267 3.266,-3.267 1.801,0 3.266,1.466 3.266,3.267 0,1.801 -1.465,3.266 -3.266,3.266 z m 0,-5.533 c -1.25,0 -2.266,1.017 -2.266,2.267 0,1.249 1.016,2.266 2.266,2.266 1.25,0 2.266,-1.017 2.266,-2.266 0,-1.25 -1.017,-2.267 -2.266,-2.267 z"
       id="path12100"
       inkscape:connector-curvature="0"
       style="fill:#000000" /></g><g
     id="g12106"
     transform="matrix(4.591954,0,0,4.591954,21.466491,11.074177)"><path
       d="m 63.843,61.002 c -1.801,0 -3.266,-1.465 -3.266,-3.266 0,-1.801 1.465,-3.266 3.266,-3.266 1.801,0 3.267,1.465 3.267,3.266 0,1.801 -1.466,3.266 -3.267,3.266 z m 0,-5.531 c -1.249,0 -2.266,1.017 -2.266,2.266 0,1.249 1.017,2.266 2.266,2.266 1.25,0 2.267,-1.017 2.267,-2.266 0,-1.249 -1.017,-2.266 -2.267,-2.266 z"
       id="path12104"
       inkscape:connector-curvature="0"
       style="fill:#000000" /></g><g
     id="g12110"
     transform="matrix(4.591954,0,0,4.591954,21.466491,11.074177)"><path
       d="m 48.099,63.865 c -1.801,0 -3.266,-1.466 -3.266,-3.267 0,-1.801 1.465,-3.266 3.266,-3.266 1.801,0 3.266,1.465 3.266,3.266 0,1.801 -1.466,3.267 -3.266,3.267 z m 0,-5.532 c -1.25,0 -2.266,1.017 -2.266,2.266 0,1.25 1.016,2.267 2.266,2.267 1.25,0 2.266,-1.017 2.266,-2.267 0,-1.249 -1.017,-2.266 -2.266,-2.266 z"
       id="path12108"
       inkscape:connector-curvature="0"
       style="fill:#000000" /></g><g
     id="g12114"
     transform="matrix(4.591954,0,0,4.591954,21.466491,11.074177)"><path
       d="m 72.431,45.258 c -1.801,0 -3.266,-1.465 -3.266,-3.266 0,-1.801 1.465,-3.266 3.266,-3.266 1.801,0 3.267,1.465 3.267,3.266 0,1.801 -1.467,3.266 -3.267,3.266 z m 0,-5.532 c -1.249,0 -2.266,1.016 -2.266,2.266 0,1.25 1.017,2.266 2.266,2.266 1.25,0 2.267,-1.017 2.267,-2.266 0,-1.249 -1.017,-2.266 -2.267,-2.266 z"
       id="path12112"
       inkscape:connector-curvature="0"
       style="fill:#000000" /></g><g
     id="g12118"
     transform="matrix(4.591954,0,0,4.591954,21.466491,11.074177)"><path
       stroke-miterlimit="10"
       d="M 57.017,49.833"
       id="path12116"
       inkscape:connector-curvature="0"
       style="fill:#000000;stroke:#010101;stroke-linecap:round;stroke-linejoin:round;stroke-miterlimit:10" /></g><g
     id="g12122"
     transform="matrix(4.591954,0,0,4.591954,21.466491,11.074177)"><path
       stroke-miterlimit="10"
       d="M 53.544,49.879"
       id="path12120"
       inkscape:connector-curvature="0"
       style="fill:#000000;stroke:#010101;stroke-linecap:round;stroke-linejoin:round;stroke-miterlimit:10" /></g></svg>