<?xml version="1.0" encoding="UTF-8" standalone="no"?>
<svg
   xmlns:dc="http://purl.org/dc/elements/1.1/"
   xmlns:cc="http://creativecommons.org/ns#"
   xmlns:rdf="http://www.w3.org/1999/02/22-rdf-syntax-ns#"
   xmlns:svg="http://www.w3.org/2000/svg"
   xmlns="http://www.w3.org/2000/svg"
   xmlns:sodipodi="http://sodipodi.sourceforge.net/DTD/sodipodi-0.dtd"
   xmlns:inkscape="http://www.inkscape.org/namespaces/inkscape"
   version="1.1"
   x="0px"
   y="0px"
   viewBox="0 0 50 50"
   enable-background="new 0 0 50 50"
   xml:space="preserve"
   id="svg2919"
   sodipodi:docname="equal.svg"
   width="50"
   height="50"
   inkscape:version="0.92.3 (2405546, 2018-03-11)"><metadata
     id="metadata2925"><rdf:RDF><cc:Work
         rdf:about=""><dc:format>image/svg+xml</dc:format><dc:type
           rdf:resource="http://purl.org/dc/dcmitype/StillImage" /><dc:title></dc:title></cc:Work></rdf:RDF></metadata><defs
     id="defs2923" /><sodipodi:namedview
     pagecolor="#ffffff"
     bordercolor="#666666"
     borderopacity="1"
     objecttolerance="10"
     gridtolerance="10"
     guidetolerance="10"
     inkscape:pageopacity="0"
     inkscape:pageshadow="2"
     inkscape:window-width="1920"
     inkscape:window-height="1017"
     id="namedview2921"
     showgrid="false"
     inkscape:zoom="3.776"
     inkscape:cx="25"
     inkscape:cy="31.25"
     inkscape:window-x="-8"
     inkscape:window-y="-8"
     inkscape:window-maximized="1"
     inkscape:current-layer="svg2919" /><path
     d="m 46.095338,18.125364 c 0,0.538707 -0.435448,0.974155 -0.974155,0.974155 H 4.9372353 c -0.5377337,0 -0.9741558,-0.435448 -0.9741558,-0.974155 v 0 c 0,-0.537734 0.4364221,-0.974156 0.9741558,-0.974156 H 45.121183 c 0.538707,0 0.974155,0.436422 0.974155,0.974156 z"
     id="path2911"
     inkscape:connector-curvature="0"
     style="stroke-width:0.97415626" /><path
     d="m 46.095338,32.737709 c 0,0.538707 -0.435448,0.974155 -0.974155,0.974155 H 4.9372353 c -0.5377337,0 -0.9741558,-0.435448 -0.9741558,-0.974155 v 0 c 0,-0.538709 0.4364221,-0.974157 0.9741558,-0.974157 H 45.121183 c 0.538707,0 0.974155,0.435448 0.974155,0.974157 z"
     id="path2913"
     inkscape:connector-curvature="0"
     style="stroke-width:0.97415626" /></svg>