<?xml version="1.0" encoding="UTF-8" standalone="no"?>
<svg
   xmlns:dc="http://purl.org/dc/elements/1.1/"
   xmlns:cc="http://creativecommons.org/ns#"
   xmlns:rdf="http://www.w3.org/1999/02/22-rdf-syntax-ns#"
   xmlns:svg="http://www.w3.org/2000/svg"
   xmlns="http://www.w3.org/2000/svg"
   xmlns:sodipodi="http://sodipodi.sourceforge.net/DTD/sodipodi-0.dtd"
   xmlns:inkscape="http://www.inkscape.org/namespaces/inkscape"
   version="1.1"
   x="0px"
   y="0px"
   viewBox="0 0 50 50"
   enable-background="new 0 0 50 50"
   xml:space="preserve"
   id="svg2679"
   sodipodi:docname="greater.svg"
   width="50"
   height="50"
   inkscape:version="0.92.3 (2405546, 2018-03-11)"><metadata
     id="metadata2685"><rdf:RDF><cc:Work
         rdf:about=""><dc:format>image/svg+xml</dc:format><dc:type
           rdf:resource="http://purl.org/dc/dcmitype/StillImage" /><dc:title></dc:title></cc:Work></rdf:RDF></metadata><defs
     id="defs2683" /><sodipodi:namedview
     pagecolor="#ffffff"
     bordercolor="#666666"
     borderopacity="1"
     objecttolerance="10"
     gridtolerance="10"
     guidetolerance="10"
     inkscape:pageopacity="0"
     inkscape:pageshadow="2"
     inkscape:window-width="1920"
     inkscape:window-height="1017"
     id="namedview2681"
     showgrid="false"
     inkscape:zoom="3.776"
     inkscape:cx="25"
     inkscape:cy="31.25"
     inkscape:window-x="-8"
     inkscape:window-y="-8"
     inkscape:window-maximized="1"
     inkscape:current-layer="svg2679" /><path
     d="m 39.627175,25.891533 c -0.199078,0.354814 -0.647188,0.478962 -1.000533,0.27915 l -26.3863,-14.900006 c -0.352611,-0.199078 -0.477494,-0.647188 -0.278415,-1.000533 v 0 C 12.161005,9.9167986 12.609114,9.7926503 12.963194,9.9917284 L 39.348759,24.891734 c 0.35408,0.199078 0.478228,0.647188 0.278416,0.999799 z"
     id="path2671"
     inkscape:connector-curvature="0"
     style="stroke-width:0.73460561" /><path
     d="m 11.961927,40.894383 c -0.199079,-0.35261 -0.07566,-0.801454 0.278415,-1.000533 L 38.625907,24.993844 c 0.35408,-0.199078 0.80219,-0.07493 1.001268,0.277681 v 0 c 0.199078,0.35408 0.07493,0.80219 -0.278416,1.002002 l -26.3863,14.900007 c -0.353345,0.199078 -0.801454,0.07493 -1.000532,-0.279151 z"
     id="path2673"
     inkscape:connector-curvature="0"
     style="stroke-width:0.73460561" /></svg>