<?xml version="1.0" encoding="UTF-8" standalone="no"?>
<svg
   xmlns:dc="http://purl.org/dc/elements/1.1/"
   xmlns:cc="http://creativecommons.org/ns#"
   xmlns:rdf="http://www.w3.org/1999/02/22-rdf-syntax-ns#"
   xmlns:svg="http://www.w3.org/2000/svg"
   xmlns="http://www.w3.org/2000/svg"
   xmlns:sodipodi="http://sodipodi.sourceforge.net/DTD/sodipodi-0.dtd"
   xmlns:inkscape="http://www.inkscape.org/namespaces/inkscape"
   version="1.1"
   x="0px"
   y="0px"
   viewBox="0 0 50 50"
   enable-background="new 0 0 50 50"
   xml:space="preserve"
   id="svg2631"
   sodipodi:docname="less.svg"
   width="50"
   height="50"
   inkscape:version="0.92.3 (2405546, 2018-03-11)"><metadata
     id="metadata2637"><rdf:RDF><cc:Work
         rdf:about=""><dc:format>image/svg+xml</dc:format><dc:type
           rdf:resource="http://purl.org/dc/dcmitype/StillImage" /><dc:title></dc:title></cc:Work></rdf:RDF></metadata><defs
     id="defs2635" /><sodipodi:namedview
     pagecolor="#ffffff"
     bordercolor="#666666"
     borderopacity="1"
     objecttolerance="10"
     gridtolerance="10"
     guidetolerance="10"
     inkscape:pageopacity="0"
     inkscape:pageshadow="2"
     inkscape:window-width="1920"
     inkscape:window-height="1017"
     id="namedview2633"
     showgrid="false"
     inkscape:zoom="3.392"
     inkscape:cx="-13.597279"
     inkscape:cy="0.92749591"
     inkscape:window-x="-8"
     inkscape:window-y="-8"
     inkscape:window-maximized="1"
     inkscape:current-layer="svg2631" /><path
     d="m 10.793516,25.780431 c -0.198975,-0.352429 -0.07563,-0.800307 0.278272,-1.000016 L 37.443722,9.8881063 c 0.353897,-0.1989753 0.801775,-0.074891 1.00075,0.2782717 v 0 c 0.198975,0.353163 0.07489,0.801041 -0.278272,1.000016 L 11.793532,26.060171 c -0.353162,0.198975 -0.80104,0.07489 -1.000016,-0.27974 z"
     id="path2623"
     inkscape:connector-curvature="0"
     style="stroke-width:0.73422611" /><path
     d="m 38.444472,40.775531 c -0.198975,0.353897 -0.646853,0.477981 -1.000016,0.279006 L 11.071788,26.161494 C 10.71936,25.962519 10.594541,25.514641 10.793516,25.16001 v 0 c 0.198976,-0.352429 0.646854,-0.477247 1.000751,-0.277538 L 38.1662,39.77478 c 0.353897,0.19971 0.477981,0.647588 0.278272,1.000751 z"
     id="path2625"
     inkscape:connector-curvature="0"
     style="stroke-width:0.73422611" /></svg>