<?xml version="1.0" encoding="UTF-8" standalone="no"?>
<svg
   xmlns:dc="http://purl.org/dc/elements/1.1/"
   xmlns:cc="http://creativecommons.org/ns#"
   xmlns:rdf="http://www.w3.org/1999/02/22-rdf-syntax-ns#"
   xmlns:svg="http://www.w3.org/2000/svg"
   xmlns="http://www.w3.org/2000/svg"
   xmlns:sodipodi="http://sodipodi.sourceforge.net/DTD/sodipodi-0.dtd"
   xmlns:inkscape="http://www.inkscape.org/namespaces/inkscape"
   version="1.1"
   x="0px"
   y="0px"
   viewBox="0 0 300 300"
   xml:space="preserve"
   id="svg352"
   sodipodi:docname="player-default.svg"
   width="300"
   height="300"
   inkscape:version="0.92.3 (2405546, 2018-03-11)"><metadata
     id="metadata358"><rdf:RDF><cc:Work
         rdf:about=""><dc:format>image/svg+xml</dc:format><dc:type
           rdf:resource="http://purl.org/dc/dcmitype/StillImage" /><dc:title></dc:title></cc:Work></rdf:RDF></metadata><defs
     id="defs356" /><sodipodi:namedview
     pagecolor="#ffffff"
     bordercolor="#666666"
     borderopacity="1"
     objecttolerance="10"
     gridtolerance="10"
     guidetolerance="10"
     inkscape:pageopacity="0.94117647"
     inkscape:pageshadow="2"
     inkscape:window-width="1920"
     inkscape:window-height="1017"
     id="namedview354"
     showgrid="false"
     inkscape:zoom="0.93691649"
     inkscape:cx="187.18163"
     inkscape:cy="323.87362"
     inkscape:window-x="-8"
     inkscape:window-y="-8"
     inkscape:window-maximized="1"
     inkscape:current-layer="svg352"
     inkscape:pagecheckerboard="false" /><g
     id="g346"
     transform="matrix(4.010335,0,0,4.010335,23.762668,22.483551)"><path
       d="m 54,47.411 c 0,-3.078 -1.974,-5.764 -4.912,-6.682 L 38,37.265 v -2.057 c 0.988,-0.646 1.864,-1.445 2.598,-2.365 C 44.437,31.431 47,27.788 47,23.675 V 16 C 47,7.729 40.271,1 32,1 23.729,1 17,7.729 17,16 v 7.675 c 0,4.113 2.563,7.756 6.402,9.167 0.734,0.92 1.61,1.719 2.598,2.365 v 2.057 L 14.912,40.729 C 11.974,41.647 10,44.333 10,47.411 V 59 h 2 v 4 h 40 v -4 h 2 z M 40.856,40.253 c -1.126,3.296 -3.382,6.096 -6.371,7.89 L 34,48.434 V 61 H 30 V 48.434 L 29.515,48.143 C 26.526,46.35 24.27,43.549 23.144,40.253 l 2.98,-0.931 c 0.388,2.303 1.76,4.375 3.791,5.594 l 2.085,1.25 2.084,-1.25 c 2.032,-1.219 3.403,-3.291 3.792,-5.594 z m 1.599,-10.85 C 42.805,28.33 43,27.188 43,26 v -7 h 2 v 4.675 c 0,2.238 -0.966,4.287 -2.545,5.728 z M 19,17 v -1 c 0,-0.338 0.025,-0.669 0.051,-1 H 44.95 c 0.025,0.331 0.05,0.662 0.05,1 v 1 z M 32,3 c 6.134,0 11.277,4.276 12.637,10 H 19.363 C 20.723,7.276 25.866,3 32,3 Z M 19,23.675 V 19 h 2 v 7 c 0,1.188 0.195,2.33 0.545,3.403 C 19.966,27.962 19,25.913 19,23.675 Z M 23,26 v -7 h 18 v 7 c 0,4.962 -4.038,9 -9,9 -4.962,0 -9,-4.038 -9,-9 z m 9,11 c 1.412,0 2.758,-0.277 4,-0.764 V 38 c 0,2.118 -1.128,4.111 -2.945,5.201 L 32,43.834 30.945,43.201 C 29.128,42.111 28,40.118 28,38 V 36.236 C 29.242,36.723 30.588,37 32,37 Z M 12,47.411 c 0,-2.199 1.41,-4.117 3.509,-4.772 l 5.724,-1.789 c 1.211,3.583 3.6,6.654 6.768,8.705 V 61 h -7 V 51 h -2 v 6 h -7 V 47.411 Z M 14,59 h 5 v 2 h -5 z m 36,2 h -5 v -2 h 5 z m 2,-4 H 45 V 51 H 43 V 61 H 36 V 49.555 c 3.167,-2.051 5.556,-5.121 6.768,-8.705 l 5.724,1.789 C 50.59,43.294 52,45.212 52,47.411 Z"
       id="path336"
       inkscape:connector-curvature="0" /><circle
       cx="37"
       cy="22"
       r="1"
       id="circle338" /><circle
       cx="27"
       cy="22"
       r="1"
       id="circle340" /><path
       d="m 36,28 h -2 c 0,1.103 -0.897,2 -2,2 -1.103,0 -2,-0.897 -2,-2 h -2 c 0,2.206 1.794,4 4,4 2.206,0 4,-1.794 4,-4 z"
       id="path342"
       inkscape:connector-curvature="0" /><path
       d="m 32,11 c 1.654,0 3,-1.346 3,-3 0,-1.654 -1.346,-3 -3,-3 -1.654,0 -3,1.346 -3,3 0,1.654 1.346,3 3,3 z m 0,-4 c 0.551,0 1,0.449 1,1 0,0.551 -0.449,1 -1,1 -0.551,0 -1,-0.449 -1,-1 0,-0.551 0.449,-1 1,-1 z"
       id="path344"
       inkscape:connector-curvature="0" /></g></svg>